<svg width="10" height="16" viewBox="0 0 10 16" fill="none" xmlns="http://www.w3.org/2000/svg">
<path d="M7.58463 0.350586H2.13007C1.18916 0.350586 0.425537 1.11421 0.425537 2.05512V13.646C0.425537 14.587 1.18916 15.3506 2.13007 15.3506H7.58463C8.52554 15.3506 9.28917 14.587 9.28917 13.646V2.05512C9.28917 1.11421 8.52554 0.350586 7.58463 0.350586ZM4.85737 14.6688C4.29145 14.6688 3.83464 14.212 3.83464 13.646C3.83464 13.0801 4.29145 12.6233 4.85737 12.6233C5.42329 12.6233 5.8801 13.0801 5.8801 13.646C5.8801 14.212 5.42326 14.6688 4.85737 14.6688ZM7.92555 11.9415H1.78919V2.39604H7.92555V11.9415Z" fill="#664EF9"/>
</svg>
