<svg width="16" height="18" viewBox="0 0 16 18" fill="none" xmlns="http://www.w3.org/2000/svg">
<path d="M5.91109 4.29814C5.91109 2.90551 4.937 1.73697 3.63453 1.4358V0.661897C3.63453 0.296309 3.33822 0 2.97264 0C2.60705 0 2.31074 0.296309 2.31074 0.661897V1.4358C1.00835 1.73689 0.0341797 2.90551 0.0341797 4.29814C0.0341797 5.69077 1.00827 6.85931 2.31074 7.16048V17.3381C2.31074 17.7037 2.60705 18 2.97264 18C3.33822 18 3.63453 17.7037 3.63453 17.3381V7.16048C4.937 6.85931 5.91109 5.69077 5.91109 4.29814ZM1.35805 4.29814C1.35805 3.40781 2.08238 2.68348 2.97271 2.68348C3.86303 2.68348 4.58737 3.40781 4.58737 4.29814C4.58737 5.18846 3.86303 5.9128 2.97271 5.9128C2.08238 5.9128 1.35805 5.18846 1.35805 4.29814Z" fill="#664EF9"/>
<path d="M8.662 8.89222V0.661897C8.662 0.296309 8.36569 0 8.0001 0C7.63451 0 7.3382 0.296309 7.3382 0.661897V8.89222C6.03581 9.19331 5.06165 10.3619 5.06165 11.7546C5.06165 13.1472 6.03574 14.3157 7.3382 14.6169V17.3381C7.3382 17.7037 7.63451 18 8.0001 18C8.36569 18 8.662 17.7037 8.662 17.3381V14.6169C9.96439 14.3158 10.9386 13.1472 10.9386 11.7546C10.9386 10.3619 9.96447 9.19338 8.662 8.89222ZM6.38551 11.7546C6.38551 10.8642 7.10985 10.1399 8.00018 10.1399C8.8905 10.1399 9.61484 10.8642 9.61484 11.7546C9.61484 12.6449 8.8905 13.3692 8.00018 13.3692C7.10985 13.3692 6.38551 12.6449 6.38551 11.7546Z" fill="#664EF9"/>
<path d="M15.9657 7.20151C15.9657 5.80888 14.9916 4.64034 13.6891 4.33918V0.661897C13.6891 0.296309 13.3928 0 13.0272 0C12.6616 0 12.3653 0.296309 12.3653 0.661897V4.33918C11.0629 4.64027 10.0887 5.80888 10.0887 7.20151C10.0887 8.59415 11.0628 9.76269 12.3653 10.0639V17.3381C12.3653 17.7037 12.6616 18 13.0272 18C13.3928 18 13.6891 17.7037 13.6891 17.3381V10.0639C14.9916 9.76269 15.9657 8.59415 15.9657 7.20151ZM11.4126 7.20151C11.4126 6.31119 12.1369 5.58685 13.0273 5.58685C13.9176 5.58685 14.6419 6.31119 14.6419 7.20151C14.6419 8.09184 13.9176 8.81618 13.0273 8.81618C12.1369 8.81618 11.4126 8.09184 11.4126 7.20151Z" fill="#664EF9"/>
</svg>
