<svg width="16" height="16" viewBox="0 0 16 16" fill="none" xmlns="http://www.w3.org/2000/svg">
<g clip-path="url(#clip0_90_368)">
<path d="M8.001 0.794434C5.85814 0.794434 4.10645 2.54613 4.10645 4.689C4.10645 6.83187 5.85814 8.58356 8.001 8.58356C10.1439 8.58356 11.8956 6.83187 11.8956 4.689C11.8956 2.54613 10.1439 0.794434 8.001 0.794434Z" fill="#686868"/>
<path d="M14.685 11.696C14.5829 11.4408 14.4469 11.2028 14.2938 10.9817C13.5115 9.82518 12.3041 9.05988 10.9435 8.8728C10.7735 8.85581 10.5864 8.88979 10.4503 8.99185C9.73603 9.51906 8.8857 9.79116 8.00133 9.79116C7.11695 9.79116 6.26663 9.51906 5.55234 8.99185C5.41627 8.88979 5.22919 8.83878 5.05914 8.8728C3.69859 9.05988 2.47411 9.82518 1.70881 10.9817C1.55575 11.2028 1.41969 11.4579 1.31767 11.696C1.26666 11.798 1.28365 11.917 1.33466 12.0191C1.47073 12.2572 1.64078 12.4953 1.79384 12.6994C2.03193 13.0225 2.28704 13.3116 2.57616 13.5837C2.81425 13.8218 3.08635 14.0429 3.35849 14.264C4.70201 15.2674 6.31767 15.7946 7.98433 15.7946C9.651 15.7946 11.2667 15.2674 12.6102 14.264C12.8823 14.0599 13.1544 13.8218 13.3925 13.5837C13.6646 13.3116 13.9367 13.0225 14.1748 12.6994C14.3449 12.4783 14.498 12.2572 14.634 12.0191C14.719 11.917 14.736 11.798 14.685 11.696Z" fill="#686868"/>
</g>
<defs>
<clipPath id="clip0_90_368">
<rect width="15" height="15" fill="white" transform="translate(0.5 0.794434)"/>
</clipPath>
</defs>
</svg>
