<svg width="18" height="16" viewBox="0 0 18 16" xmlns="http://www.w3.org/2000/svg">
<path d="M16.3924 15.0714C16.797 15.0714 17.1476 14.9378 17.4456 14.674L12.346 9.57413C12.2236 9.66174 12.105 9.74694 11.993 9.82795C11.6113 10.1091 11.3016 10.3285 11.0638 10.4858C10.8259 10.6434 10.5095 10.804 10.1146 10.968C9.71934 11.1321 9.35113 11.214 9.00956 11.214H8.99956H8.98956C8.64795 11.214 8.27975 11.1322 7.88455 10.968C7.48935 10.804 7.17294 10.6434 6.93536 10.4858C6.69754 10.3285 6.38797 10.1092 6.00613 9.82795C5.89972 9.74995 5.78172 9.66436 5.65413 9.57275L0.553467 14.674C0.851476 14.9378 1.2023 15.0714 1.60688 15.0714H16.3924Z" />
<path d="M1.01462 6.36276C0.633012 6.10835 0.294611 5.81698 0 5.48877V13.2478L4.49485 8.75298C3.59562 8.1252 2.43702 7.32937 1.01462 6.36276Z" />
<path d="M16.9959 6.36276C15.6278 7.28879 14.4649 8.08598 13.5073 8.75478L18.0003 13.248V5.48877C17.7123 5.81037 17.3775 6.10155 16.9959 6.36276Z"/>
<path d="M16.3929 0.928711H1.60741C1.09159 0.928711 0.695013 1.1029 0.4172 1.45091C0.139158 1.79908 0.000366211 2.23451 0.000366211 2.7567C0.000366211 3.1785 0.184551 3.63553 0.552757 4.12792C0.920963 4.62012 1.31276 5.00672 1.72796 5.28793C1.95558 5.44875 2.64199 5.92595 3.7872 6.71935C4.40541 7.14776 4.94303 7.52116 5.40502 7.84338C5.79882 8.11776 6.13843 8.35538 6.41882 8.55257C6.45101 8.57515 6.50163 8.61136 6.56882 8.6594C6.64121 8.7114 6.73281 8.77738 6.84582 8.85898C7.06344 9.01637 7.24422 9.14359 7.38821 9.24078C7.532 9.338 7.70622 9.4466 7.9106 9.56719C8.11482 9.68761 8.30743 9.77817 8.48822 9.8384C8.66904 9.8986 8.83643 9.92879 8.99041 9.92879H9.00041H9.01042C9.16437 9.92879 9.33179 9.8986 9.51264 9.8384C9.6934 9.77817 9.88585 9.68781 10.0902 9.56719C10.2944 9.4466 10.4684 9.33777 10.6127 9.24078C10.7566 9.14359 10.9374 9.0164 11.1551 8.85898C11.2679 8.77738 11.3595 8.71136 11.4318 8.65957C11.4991 8.61133 11.5497 8.57535 11.582 8.55257C11.8005 8.40058 12.1409 8.16394 12.5985 7.84616C13.4313 7.26756 14.6577 6.41595 16.2829 5.28793C16.7717 4.94653 17.1801 4.53453 17.5083 4.05253C17.8359 3.57053 18.0002 3.06494 18.0002 2.53592C18.0002 2.09392 17.8409 1.71571 17.5231 1.40071C17.2049 1.0861 16.8282 0.928711 16.3929 0.928711Z" />
</svg>
