<svg width="16" height="17" viewBox="0 0 16 17" fill="none" xmlns="http://www.w3.org/2000/svg">
<path d="M7.90276 0.407538C6.63394 0.424676 3.90384 0.632959 2.37665 2.03228C1.24295 3.15939 0.846816 4.82104 0.800678 6.87884C0.76113 8.92872 0.714991 12.778 4.42587 13.8267V15.4218C4.42587 15.4218 4.40082 16.0611 4.82266 16.1929C5.34337 16.3577 5.63998 15.864 6.13432 15.3367L7.0571 14.2953C9.59473 14.5062 11.5392 14.0191 11.7633 13.9466C12.2774 13.7819 15.1782 13.4121 15.6528 9.56214C16.1405 5.58695 15.4155 3.08227 14.1104 1.94857L14.1038 1.94726C13.7083 1.58474 12.1264 0.431267 8.58693 0.418084C8.58693 0.418084 8.32592 0.401606 7.90276 0.407538ZM7.94692 1.52607C8.30614 1.5241 8.52695 1.53926 8.52695 1.53926C11.5194 1.54585 12.9503 2.44885 13.2865 2.75205C14.3872 3.69394 14.9528 5.95276 14.5388 9.27212C14.1434 12.4887 11.7903 12.693 11.3553 12.8314C11.1707 12.8907 9.45698 13.3126 7.30032 13.1741C7.30032 13.1741 5.69271 15.1126 5.19177 15.6136C5.11268 15.6993 5.0204 15.7256 4.96108 15.7124C4.87539 15.6927 4.84903 15.5872 4.85562 15.4422L4.8688 12.7932C1.72411 11.9231 1.90867 8.63936 1.94162 6.92563C1.98117 5.21191 2.30414 3.80665 3.25988 2.85751C4.54979 1.69086 6.86859 1.53267 7.94626 1.52607H7.94692ZM8.18421 3.2398C8.15827 3.23972 8.13257 3.24475 8.10858 3.25461C8.0846 3.26448 8.06279 3.27898 8.04442 3.29729C8.02605 3.3156 8.01148 3.33736 8.00153 3.36131C7.99159 3.38526 7.98647 3.41094 7.98647 3.43688C7.98647 3.48932 8.0073 3.53962 8.04438 3.5767C8.08147 3.61379 8.13176 3.63462 8.18421 3.63462C8.67423 3.62527 9.16125 3.71307 9.61716 3.89294C10.0731 4.07282 10.4888 4.34121 10.8405 4.68263C11.5589 5.3813 11.9089 6.31726 11.9221 7.54323C11.9221 7.5692 11.9272 7.59491 11.9372 7.61891C11.9471 7.6429 11.9617 7.66469 11.98 7.68306C11.9984 7.70142 12.0202 7.71598 12.0442 7.72592C12.0682 7.73586 12.0939 7.74097 12.1198 7.74097V7.73504C12.1723 7.73504 12.2226 7.71421 12.2597 7.67712C12.2968 7.64004 12.3176 7.58975 12.3176 7.5373C12.342 6.96075 12.2489 6.38526 12.0438 5.84588C11.8387 5.30649 11.5259 4.8145 11.1246 4.39986C10.3402 3.63528 9.3502 3.2398 8.18355 3.2398H8.18421ZM5.57802 3.6946C5.43785 3.67462 5.29504 3.70249 5.17266 3.77369H5.16475C4.89451 3.93188 4.64536 4.12962 4.40807 4.39327C4.23011 4.60419 4.13058 4.81445 4.10422 5.01878C4.08871 5.13862 4.09996 5.26041 4.13717 5.37537L4.15036 5.38196C4.35352 5.97922 4.61861 6.55359 4.94131 7.09569C5.35959 7.85488 5.87351 8.55731 6.47048 9.18578L6.49025 9.21214L6.51662 9.23191L6.53639 9.25169L6.55616 9.27146C7.1871 9.86994 7.89139 10.386 8.65218 10.8072C9.52223 11.2818 10.0508 11.5059 10.3672 11.5982V11.6048C10.4595 11.6311 10.5439 11.6443 10.6296 11.6443C10.8996 11.6246 11.1553 11.5151 11.3559 11.3332C11.613 11.1025 11.8173 10.8468 11.9689 10.5765V10.5699C12.1205 10.2865 12.0678 10.0156 11.8503 9.83106C11.4119 9.44758 10.9373 9.10763 10.4331 8.81601C10.097 8.63145 9.75424 8.7435 9.61583 8.92806L9.31922 9.3031C9.16762 9.48766 8.89079 9.46129 8.89079 9.46129L8.88288 9.46788C6.82641 8.94058 6.27933 6.8584 6.27933 6.8584C6.27933 6.8584 6.25297 6.57498 6.44411 6.42997L6.81322 6.13336C6.99119 5.98836 7.11642 5.64561 6.92527 5.30946C6.63404 4.80505 6.29406 4.33041 5.91022 3.89234C5.82673 3.78878 5.70885 3.71862 5.57802 3.6946ZM8.52629 4.28122C8.47385 4.2814 8.42362 4.3024 8.38666 4.3396C8.3497 4.37681 8.32904 4.42717 8.32921 4.47962C8.32939 4.53206 8.35039 4.58229 8.3876 4.61925C8.4248 4.65621 8.47517 4.67687 8.52761 4.6767C9.18723 4.68815 9.81538 4.96074 10.2743 5.43469C10.4813 5.66309 10.6405 5.93066 10.7424 6.22161C10.8443 6.51256 10.8868 6.82098 10.8675 7.12864C10.8677 7.18097 10.8886 7.2311 10.9257 7.26804C10.9627 7.30498 11.0129 7.32572 11.0652 7.32572L11.0718 7.33363C11.0979 7.33363 11.1236 7.3285 11.1477 7.31852C11.1717 7.30854 11.1935 7.29391 11.2119 7.27548C11.2303 7.25705 11.2448 7.23518 11.2547 7.21111C11.2646 7.18704 11.2697 7.16126 11.2696 7.13523C11.2893 6.35088 11.0455 5.69175 10.5643 5.16445C10.0831 4.63715 9.41084 4.34054 8.55397 4.28122C8.54476 4.28057 8.53551 4.28057 8.52629 4.28122ZM8.84926 5.34835C8.82282 5.34757 8.79648 5.352 8.77175 5.3614C8.74702 5.3708 8.72439 5.38498 8.70514 5.40313C8.68589 5.42128 8.6704 5.44304 8.65957 5.46717C8.64873 5.4913 8.64275 5.51733 8.64197 5.54378C8.64119 5.57022 8.64563 5.59656 8.65503 5.62129C8.66443 5.64601 8.6786 5.66865 8.69675 5.6879C8.7149 5.70715 8.73666 5.72263 8.76079 5.73347C8.78492 5.74431 8.81096 5.75029 8.8374 5.75107C9.48993 5.78403 9.80631 6.11359 9.84586 6.79249C9.84757 6.84378 9.86916 6.8924 9.90606 6.92807C9.94296 6.96374 9.99228 6.98366 10.0436 6.98364H10.0502C10.0767 6.98281 10.1029 6.97664 10.127 6.9655C10.1511 6.95435 10.1727 6.93847 10.1906 6.91878C10.2084 6.89909 10.2221 6.87601 10.2308 6.85092C10.2395 6.82582 10.2431 6.79922 10.2413 6.77272C10.1952 5.88949 9.71404 5.39448 8.85717 5.34835C8.85454 5.34829 8.8519 5.34829 8.84926 5.34835Z" fill="white"/>
</svg>
