<svg width="16" height="16" viewBox="0 0 16 16" fill="none" xmlns="http://www.w3.org/2000/svg">
<path d="M13.3802 2.58754C12.6798 1.88207 11.8463 1.32277 10.928 0.942118C10.0097 0.561466 9.02489 0.367048 8.03081 0.370154C3.86403 0.370154 0.472613 3.76157 0.472613 7.93121C0.472613 9.26355 0.821673 10.5663 1.4826 11.7108L0.409668 15.6296L4.41814 14.5777C5.52631 15.1813 6.76794 15.498 8.02986 15.4989H8.03272C12.1995 15.4989 15.5938 12.1075 15.5938 7.93789C15.5963 6.94415 15.4019 5.95976 15.0218 5.04159C14.6417 4.12342 14.0834 3.28967 13.3792 2.5885L13.3802 2.58754ZM8.03272 14.2229C6.90653 14.2231 5.80102 13.9203 4.83205 13.3464L4.6022 13.2091L2.22364 13.8319L2.85881 11.5134L2.71003 11.2749C2.07844 10.2743 1.74467 9.11453 1.74773 7.93121C1.74975 6.2642 2.41306 4.66609 3.59208 3.4876C4.77111 2.30911 6.36952 1.64653 8.03653 1.64527C9.71412 1.64527 11.2944 2.30143 12.4799 3.4869C13.0649 4.06979 13.5286 4.76284 13.8442 5.526C14.1598 6.28915 14.3211 7.10728 14.3187 7.93312C14.3158 11.4018 11.4966 14.2219 8.03272 14.2219V14.2229ZM11.4785 9.51438C11.2906 9.41901 10.3607 8.96313 10.1881 8.90019C10.0155 8.83724 9.8896 8.80481 9.7618 8.99556C9.63687 9.18344 9.2735 9.60975 9.16287 9.73755C9.05224 9.86248 8.94256 9.88061 8.75468 9.78523C8.5668 9.68986 7.95547 9.49054 7.23446 8.84678C6.67367 8.34608 6.29314 7.72616 6.18251 7.53828C6.07188 7.3504 6.17011 7.24644 6.26644 7.15393C6.35322 7.07001 6.45432 6.93363 6.54969 6.82299C6.64506 6.71236 6.67463 6.63511 6.73757 6.50731C6.80052 6.38238 6.77 6.27175 6.72231 6.17637C6.67463 6.081 6.296 5.15113 6.1415 4.77251C5.98986 4.40246 5.83154 4.45396 5.71519 4.44729C5.60456 4.44157 5.47962 4.44157 5.35468 4.44157C5.22975 4.44157 5.02374 4.48925 4.85112 4.67713C4.6785 4.86502 4.18924 5.32375 4.18924 6.25363C4.18924 7.1835 4.86543 8.08094 4.9608 8.20874C5.05617 8.33368 6.29314 10.244 8.18817 11.0613C8.63833 11.2549 8.99025 11.3713 9.26396 11.4609C9.71698 11.604 10.128 11.583 10.4532 11.5353C10.8166 11.4819 11.571 11.0794 11.7293 10.6379C11.8876 10.1963 11.8876 9.81861 11.84 9.74041C11.7951 9.65648 11.6702 9.60975 11.4794 9.51343L11.4785 9.51438Z" fill="white"/>
</svg>
